<svg xmlns="http://www.w3.org/2000/svg" width="437" height="121" viewBox="0 0 437 121" version="1.1"><path d="M 377.406 57.386 C 377.113 58.148, 377.015 60.735, 377.187 63.136 L 377.500 67.500 382.500 67.500 L 387.500 67.500 387.800 61.750 L 388.100 56 383.019 56 C 379.611 56, 377.762 56.456, 377.406 57.386 M 377 100.853 C 377 102.423, 376.711 106.473, 376.358 109.853 L 375.715 116 379.240 116 L 382.764 116 385.382 107.604 C 386.822 102.986, 388 98.936, 388 98.604 C 388 98.272, 385.525 98, 382.500 98 C 377.118 98, 377 98.061, 377 100.853" stroke="none" fill="#f8981b" fill-rule="evenodd"/><path d="M 357.200 30.750 L 357.500 36.500 361.750 36.807 L 366 37.115 366 31.057 L 366 25 361.450 25 L 356.900 25 357.200 30.750 M 301 49.043 C 298.525 49.478, 293.462 49.582, 289.750 49.274 L 283 48.713 283 78.856 L 283 109 287.500 109 L 292 109 292 83.625 L 292 58.250 295.125 57.625 C 296.844 57.281, 300.669 57, 303.625 57 L 309 57 309 83 L 309 109 313.500 109 L 318 109 318 83.625 L 318 58.250 321.125 57.625 C 322.844 57.281, 326.669 57, 329.625 57 L 335 57 335 83 L 335 109 339.500 109 L 344 109 344 80.500 C 344 53.333, 343.906 51.906, 342 50 C 339.663 47.663, 336.029 47.527, 324.847 49.361 C 318.597 50.386, 316.867 50.376, 315.406 49.308 C 313.467 47.890, 308.109 47.791, 301 49.043 M 238.039 51.189 C 236.434 52.912, 236 54.719, 236 59.689 L 236 66 240.500 66 L 245 66 245 61.500 L 245 57 253.500 57 L 262 57 262 65 L 262 73 251.556 73 C 241.957 73, 240.884 73.195, 238.306 75.413 L 235.500 77.827 235.500 92.002 C 235.500 105.906, 235.548 106.215, 237.994 108.196 C 240.253 110.026, 241.241 110.138, 248.494 109.386 C 252.897 108.930, 259.783 108.684, 263.795 108.839 L 271.090 109.120 270.795 81.163 C 270.426 46.229, 271.926 49, 253.384 49 C 240.984 49, 239.939 49.149, 238.039 51.189 M 357 79 L 357 109 361.500 109 L 366 109 366 79 L 366 49 361.500 49 L 357 49 357 79 M 245 91 L 245 101 253.500 101 L 262 101 262 91 L 262 81 253.500 81 L 245 81 245 91" stroke="none" fill="#ffffff" fill-rule="evenodd"/><path d="M 19.763 6.565 C 14.695 9.315, 14 12.251, 14 30.891 L 14 47.881 9.069 52.039 C 6.358 54.325, 3.889 56.846, 3.584 57.640 C 3.240 58.538, 5.106 61.017, 8.515 64.190 L 14 69.294 14 88.197 C 14 109.067, 14.599 111.707, 19.967 114.483 C 21.829 115.446, 25.658 116, 30.450 116 L 38 116 38 112 L 38 108 32.057 108 C 23.127 108, 23 107.674, 23 84.662 L 23 65.770 19.305 62.385 C 17.272 60.523, 15.306 59, 14.936 59 C 14.566 59, 16.229 57.034, 18.632 54.632 L 23 50.263 23 33.287 C 23 13.335, 23.259 12.756, 32.254 12.579 L 37.500 12.475 37.810 8.738 L 38.121 5 30.310 5.040 C 25.367 5.065, 21.495 5.625, 19.763 6.565 M 398 9 L 398 13 403.845 13 C 412.860 13, 413 13.314, 413 33.500 L 413 50.343 417.259 54.423 L 421.517 58.504 417.259 62.579 L 413 66.654 413 85.770 C 413 104.391, 412.942 104.927, 410.777 106.443 C 409.448 107.375, 406.436 108, 403.277 108 L 398 108 398 112 L 398 116 405.550 116 C 410.342 116, 414.171 115.446, 416.033 114.483 C 421.405 111.705, 422 109.075, 422 88.107 L 422 69.115 427.500 64.367 C 430.525 61.755, 433 59.064, 433 58.387 C 433 57.709, 430.525 55.040, 427.500 52.456 L 422 47.757 422 30.343 C 422 15.851, 421.723 12.507, 420.352 10.414 C 417.729 6.411, 413.872 5, 405.550 5 L 398 5 398 9" stroke="none" fill="#0484fc" fill-rule="evenodd"/><path d="M 48 61 L 48 109 65.532 109 C 78.077 109, 83.993 108.612, 86.329 107.636 C 90.491 105.897, 94.632 100.986, 95.956 96.219 C 97.330 91.272, 97.330 30.728, 95.956 25.781 C 94.632 21.014, 90.491 16.103, 86.329 14.364 C 83.993 13.388, 78.077 13, 65.532 13 L 48 13 48 61 M 107 61 L 107 109 127 109 L 147 109 147 102.500 L 147 96 134.500 96 L 122 96 122 81.500 L 122 67 132.500 67 L 143 67 143 60 L 143 53 132.500 53 L 122 53 122 39.500 L 122 26 134.500 26 L 147 26 147 19.500 L 147 13 127 13 L 107 13 107 61 M 153.346 14.750 C 153.610 15.713, 157.779 37.313, 162.609 62.750 L 171.393 109 178.997 109 L 186.602 109 190.421 88.750 C 192.522 77.612, 196.661 56.241, 199.620 41.257 C 202.579 26.273, 205 13.767, 205 13.465 C 205 13.163, 201.513 13.047, 197.252 13.208 L 189.503 13.500 184.470 44.500 C 181.701 61.550, 179.173 75.050, 178.851 74.500 C 178.530 73.950, 176.082 59.888, 173.413 43.250 L 168.559 13 160.712 13 C 153.723 13, 152.918 13.191, 153.346 14.750 M 63 61 L 63 96 69.066 96 C 74.960 96, 78.731 94.852, 80.235 92.600 C 80.639 91.995, 80.976 77.662, 80.985 60.750 C 81.003 24.244, 81.558 26, 70 26 L 63 26 63 61 M 211 63.044 L 211 71.088 218.250 70.794 L 225.500 70.500 225.792 62.750 L 226.084 55 218.542 55 L 211 55 211 63.044 M 211 100.956 L 211 109 218.542 109 L 226.084 109 225.792 101.250 L 225.500 93.500 218.250 93.206 L 211 92.912 211 100.956" stroke="none" fill="#f45d23" fill-rule="evenodd"/></svg>