<svg xmlns="http://www.w3.org/2000/svg" width="500" height="500" viewBox="0 0 500 500" version="1.1"><path d="M 135.677 64.301 C 141.771 71.994, 188.527 126, 189.094 126 C 190.259 126, 206.202 108.095, 205.840 107.194 C 205.653 106.729, 196.950 96.373, 186.500 84.181 L 167.500 62.013 150.677 62.007 L 133.855 62 135.677 64.301 M 280 279.500 C 296.218 295.725, 309.712 309, 309.987 309 C 310.262 309, 297.218 295.725, 281 279.500 C 264.782 263.275, 251.288 250, 251.013 250 C 250.738 250, 263.782 263.275, 280 279.500 M 146.537 353.963 C 135.568 364.943, 126.797 374.106, 127.046 374.325 C 127.296 374.545, 184.102 388.968, 253.283 406.377 L 379.067 438.030 408.283 437.765 L 437.500 437.500 399.500 399.445 C 378.600 378.514, 367.569 367.602, 374.987 375.195 C 382.404 382.788, 388.112 389, 387.671 389 C 387.230 389, 337.698 376.625, 277.599 361.500 C 217.501 346.375, 167.914 334, 167.405 334 C 166.897 334, 157.506 342.983, 146.537 353.963" stroke="none" fill="#6975e1" fill-rule="evenodd"/><path d="M 169.128 63.739 C 169.882 64.696, 178.682 75.038, 188.681 86.722 L 206.863 107.966 212.181 102.106 C 215.107 98.884, 224.865 88.541, 233.866 79.123 L 250.233 62 208.994 62 C 169.956 62, 167.828 62.093, 169.128 63.739 M 208.686 291.749 L 166.871 333.638 277.057 361.365 C 337.659 376.614, 387.431 388.902, 387.663 388.670 C 387.895 388.439, 357.128 357.112, 319.292 319.055 L 250.500 249.861 208.686 291.749" stroke="none" fill="#806ee3" fill-rule="evenodd"/><path d="M 81.675 64.250 C 82.789 65.487, 100.035 85.625, 120 109 C 139.965 132.375, 157.211 152.512, 158.325 153.750 L 160.349 156 157.941 158.750 C 156.617 160.262, 157.640 159.517, 160.215 157.093 C 162.789 154.669, 164.815 152.419, 164.717 152.093 C 164.619 151.767, 170.029 145.924, 176.739 139.108 L 188.939 126.716 186.380 123.675 C 184.972 122.002, 172.520 107.441, 158.708 91.317 L 133.595 62 106.623 62 L 79.651 62 81.675 64.250 M 145.437 172.250 L 142.500 175.500 145.750 172.563 C 148.779 169.825, 149.460 169, 148.687 169 C 148.515 169, 147.052 170.463, 145.437 172.250 M 127.437 191.250 L 124.500 194.500 127.750 191.563 C 129.537 189.948, 131 188.485, 131 188.313 C 131 187.540, 130.175 188.221, 127.437 191.250 M 108.946 210.750 L 105.500 214.500 109.250 211.054 C 111.313 209.158, 113 207.471, 113 207.304 C 113 206.540, 112.154 207.260, 108.946 210.750 M 89.946 230.750 L 86.500 234.500 90.250 231.054 C 92.313 229.158, 94 227.471, 94 227.304 C 94 226.540, 93.154 227.260, 89.946 230.750 M 71.437 250.250 L 68.500 253.500 71.750 250.563 C 73.537 248.948, 75 247.485, 75 247.313 C 75 246.540, 74.175 247.221, 71.437 250.250 M 335 334.500 C 349.017 348.525, 360.710 360, 360.985 360 C 361.260 360, 350.017 348.525, 336 334.500 C 321.983 320.475, 310.290 309, 310.015 309 C 309.740 309, 320.983 320.475, 335 334.500 M 95.861 404.639 C 79.212 421.295, 65.794 435.099, 66.045 435.314 C 68.910 437.775, 82.606 437.996, 226.693 437.909 L 377.500 437.818 346.500 429.926 C 329.450 425.586, 272.892 411.307, 220.816 398.195 L 126.132 374.356 95.861 404.639 M 432 432.500 C 434.987 435.525, 437.657 438, 437.932 438 C 438.207 438, 435.987 435.525, 433 432.500 C 430.013 429.475, 427.343 427, 427.068 427 C 426.793 427, 429.013 429.475, 432 432.500" stroke="none" fill="#4680dd" fill-rule="evenodd"/><path d="M 63.245 62.827 C 62.250 63.459, 62.043 83.912, 62.245 161.754 L 62.500 259.883 108.633 211.192 C 134.006 184.411, 155.984 161.037, 157.472 159.250 L 160.178 156 157.444 152.750 C 155.941 150.963, 137.838 129.813, 117.217 105.750 L 79.723 62 72.112 62.015 C 67.925 62.024, 63.935 62.389, 63.245 62.827 M 63.923 436.593 C 62.941 437.776, 63.689 437.987, 68.628 437.921 C 74.785 437.838, 74.796 437.716, 68.795 436.152 C 65.925 435.404, 64.827 435.503, 63.923 436.593" stroke="none" fill="#0095d5" fill-rule="evenodd"/><path d="M 62.116 360.498 L 62 437.497 99.747 399.750 L 137.493 362.003 100.328 324.752 C 79.888 304.263, 62.954 286.600, 62.698 285.500 C 62.442 284.400, 62.180 318.149, 62.116 360.498" stroke="none" fill="#c959b5" fill-rule="evenodd"/><path d="M 246.437 66.250 L 243.500 69.500 246.750 66.563 C 249.779 63.825, 250.460 63, 249.687 63 C 249.515 63, 248.052 64.463, 246.437 66.250 M 335.751 163.748 L 235.004 264.495 190.037 219.537 C 146.308 175.816, 145.117 174.523, 146.741 172.540 C 150.973 167.372, 136.134 182.753, 100.509 220.458 L 61.810 261.416 62.155 274.207 L 62.500 286.998 100.060 324.558 L 137.621 362.117 287.560 212.609 C 370.027 130.379, 437.275 63.077, 436.999 63.050 C 436.724 63.022, 391.162 108.336, 335.751 163.748 M 227.437 86.250 L 224.500 89.500 227.750 86.563 C 229.537 84.948, 231 83.485, 231 83.313 C 231 82.540, 230.175 83.221, 227.437 86.250 M 209.437 105.250 L 206.500 108.500 209.750 105.563 C 211.537 103.948, 213 102.485, 213 102.313 C 213 101.540, 212.175 102.221, 209.437 105.250 M 191.946 123.750 L 188.500 127.500 192.250 124.054 C 194.313 122.158, 196 120.471, 196 120.304 C 196 119.540, 195.154 120.260, 191.946 123.750 M 174.946 141.750 L 171.500 145.500 175.250 142.054 C 178.740 138.846, 179.460 138, 178.696 138 C 178.529 138, 176.842 139.688, 174.946 141.750 M 158.453 159.250 L 154.500 163.500 158.750 159.547 C 161.088 157.373, 163 155.460, 163 155.297 C 163 154.540, 162.129 155.298, 158.453 159.250" stroke="none" fill="#df7064" fill-rule="evenodd"/><path d="M 231 82.854 C 220.275 94.220, 196.495 119.446, 178.155 138.912 L 144.809 174.306 189.905 219.402 L 235.001 264.498 336.250 163.249 L 437.499 62 343.999 62.095 L 250.500 62.190 231 82.854" stroke="none" fill="#f48519" fill-rule="evenodd"/><path d="M 238.462 74.250 L 233.500 79.500 238.750 74.538 C 243.628 69.926, 244.459 69, 243.712 69 C 243.554 69, 241.192 71.362, 238.462 74.250 M 219.462 94.250 L 214.500 99.500 219.750 94.538 C 222.637 91.808, 225 89.446, 225 89.288 C 225 88.541, 224.074 89.372, 219.462 94.250 M 202.453 112.250 L 198.500 116.500 202.750 112.547 C 205.088 110.373, 207 108.460, 207 108.297 C 207 107.540, 206.129 108.298, 202.453 112.250 M 185.437 130.250 L 182.500 133.500 185.750 130.563 C 187.537 128.948, 189 127.485, 189 127.313 C 189 126.540, 188.175 127.221, 185.437 130.250 M 115.437 204.250 L 112.500 207.500 115.750 204.563 C 117.537 202.948, 119 201.485, 119 201.313 C 119 200.540, 118.175 201.221, 115.437 204.250 M 97.437 223.250 L 94.500 226.500 97.750 223.563 C 100.779 220.825, 101.460 220, 100.687 220 C 100.515 220, 99.052 221.463, 97.437 223.250 M 79.946 241.750 L 76.500 245.500 80.250 242.054 C 82.313 240.158, 84 238.471, 84 238.304 C 84 237.540, 83.154 238.260, 79.946 241.750 M 133.997 365.750 L 61.500 438.500 134.250 366.003 C 174.262 326.129, 207 293.392, 207 293.253 C 207 293.114, 206.886 293, 206.747 293 C 206.608 293, 173.871 325.738, 133.997 365.750" stroke="none" fill="#9371b7" fill-rule="evenodd"/></svg>