<svg xmlns="http://www.w3.org/2000/svg" width="500" height="500" viewBox="0 0 500 500" version="1.1"><path d="M 105 137.496 C 87.826 141.367, 72.770 153.318, 65.117 169.154 C 61.842 175.930, 57.411 189.846, 58.290 190.592 C 58.406 190.689, 76.338 179.009, 98.140 164.635 C 120.854 149.659, 137.420 138.115, 136.938 137.598 C 135.424 135.976, 112.076 135.902, 105 137.496" stroke="none" fill="#e439c5" fill-rule="evenodd"/><path d="M 119.250 135.716 C 120.763 135.945, 123.237 135.945, 124.750 135.716 C 126.263 135.487, 125.025 135.300, 122 135.300 C 118.975 135.300, 117.737 135.487, 119.250 135.716 M 137.314 137.750 C 137.798 138.591, 59.178 190.626, 57.949 190.278 C 56.654 189.910, 55.684 204.756, 56.304 215.471 C 56.885 225.520, 61.182 248.260, 61.790 244.500 C 62.014 243.108, 76.426 233.061, 109.177 211.465 L 156.242 180.431 158.685 171.968 C 160.029 167.313, 162.613 160.080, 164.427 155.893 L 167.725 148.282 162.113 145.510 C 156.145 142.563, 140.548 137, 138.253 137 C 137.499 137, 137.076 137.338, 137.314 137.750" stroke="none" fill="#dd41cb" fill-rule="evenodd"/><path d="M 230.250 100.716 C 231.762 100.945, 234.238 100.945, 235.750 100.716 C 237.262 100.487, 236.025 100.300, 233 100.300 C 229.975 100.300, 228.738 100.487, 230.250 100.716 M 286 124.500 C 287.866 126.425, 289.617 128, 289.892 128 C 290.167 128, 288.866 126.425, 287 124.500 C 285.134 122.575, 283.383 121, 283.108 121 C 282.833 121, 284.134 122.575, 286 124.500 M 109.278 211.303 C 81.638 229.563, 62.044 243.134, 62.028 244.028 C 61.968 247.305, 67.367 262.024, 72.470 272.500 C 78.514 284.904, 90.958 303.551, 93.093 303.401 C 94.298 303.316, 153.008 265.230, 155.331 263.027 C 155.788 262.593, 155.470 256.672, 154.625 249.869 C 151.369 223.670, 151.607 204.561, 155.417 186.386 C 156.153 182.874, 156.698 180.024, 156.628 180.053 C 156.558 180.083, 135.250 194.145, 109.278 211.303 M 102 316.313 C 102 316.485, 103.463 317.948, 105.250 319.563 L 108.500 322.500 105.563 319.250 C 102.825 316.221, 102 315.540, 102 316.313 M 119.500 335 C 123.874 339.400, 127.678 343, 127.953 343 C 128.228 343, 124.874 339.400, 120.500 335 C 116.126 330.600, 112.322 327, 112.047 327 C 111.772 327, 115.126 330.600, 119.500 335" stroke="none" fill="#d150d4" fill-rule="evenodd"/><path d="M 152.272 223 C 152.272 225.475, 152.467 226.488, 152.706 225.250 C 152.944 224.012, 152.944 221.988, 152.706 220.750 C 152.467 219.512, 152.272 220.525, 152.272 223 M 156.136 261.645 C 156.061 262.274, 141.837 272.112, 124.527 283.506 L 93.054 304.223 99.254 311.861 C 102.664 316.063, 112.374 326.562, 120.832 335.193 L 136.210 350.887 154.355 338.804 C 164.335 332.158, 172.633 326.612, 172.797 326.480 C 172.960 326.348, 171.087 319.774, 168.635 311.870 C 164.959 300.019, 158.489 273.533, 156.698 263 C 156.464 261.625, 156.211 261.015, 156.136 261.645" stroke="none" fill="#c264e0" fill-rule="evenodd"/><path d="M 172.862 325.754 C 172.663 326.265, 164.850 331.761, 155.500 337.968 C 146.150 344.175, 138.176 349.542, 137.781 349.896 C 136.867 350.712, 150.622 362.572, 163 371.641 C 177.105 381.976, 187.989 388.639, 200.397 394.538 C 210.913 399.536, 218.266 402.355, 215.143 400.191 C 214.157 399.507, 214.100 399.056, 214.935 398.540 C 215.675 398.083, 213.835 395.448, 209.759 391.128 C 198.448 379.137, 186.899 359.389, 177.908 336.663 C 175.332 330.153, 173.062 325.244, 172.862 325.754" stroke="none" fill="#b86fe8" fill-rule="evenodd"/><path d="M 173.418 323.711 C 185.643 357.845, 201.378 384.425, 216.397 396.312 C 220.501 399.561, 220.477 398.947, 216.282 393.355 C 211.368 386.805, 208.060 372.768, 208.020 358.301 C 208.002 351.877, 210.127 331.851, 211.570 324.845 L 212.117 322.189 203.809 321.627 C 199.239 321.318, 190.226 320.808, 183.781 320.493 L 172.061 319.922 173.418 323.711" stroke="none" fill="#fbe520" fill-rule="evenodd"/><path d="M 222.527 286.616 C 220.518 292.882, 218.791 299.199, 218.688 300.652 C 218.522 302.981, 223.639 307.617, 261.852 339.761 C 300.706 372.445, 305.432 376.124, 307.402 375.227 C 309.974 374.055, 330 359.028, 330 358.270 C 330 357.987, 329.372 358.277, 328.604 358.914 C 327.478 359.848, 317.404 351.839, 276.693 317.647 L 226.178 275.222 222.527 286.616" stroke="none" fill="#8e92f5" fill-rule="evenodd"/><path d="M 234.575 254.928 C 229.739 266.384, 227 273.676, 227 275.092 C 227 275.555, 249.549 294.864, 277.109 318.002 L 327.218 360.071 330.859 357.341 C 337.967 352.010, 352 339.851, 352 339.023 C 352 338.293, 243.421 246.569, 240.344 244.700 C 239.580 244.236, 237.626 247.698, 234.575 254.928 M 367.946 324.750 L 364.500 328.500 368.250 325.054 C 370.313 323.158, 372 321.471, 372 321.304 C 372 320.540, 371.154 321.260, 367.946 324.750" stroke="none" fill="#809bf7" fill-rule="evenodd"/><path d="M 366 141.400 C 366 141.960, 426.775 193, 427.441 193 C 427.739 193, 426.842 189.968, 425.447 186.262 C 417.287 164.585, 397.896 146.630, 378.115 142.437 C 371.686 141.074, 366 140.588, 366 141.400" stroke="none" fill="#27d3fe" fill-rule="evenodd"/><path d="M 343.063 143.536 C 337.873 144.877, 333.231 146.369, 332.749 146.851 C 331.996 147.604, 427.340 228.797, 430.243 229.876 C 431.621 230.388, 430.569 201.611, 429.041 197 C 428.101 194.163, 421.935 188.530, 396.470 167.250 L 365.059 141 358.780 141.049 C 355.326 141.076, 348.253 142.195, 343.063 143.536 M 405 156.313 C 405 156.485, 406.462 157.948, 408.250 159.563 L 411.500 162.500 408.563 159.250 C 405.825 156.221, 405 155.540, 405 156.313" stroke="none" fill="#2cd0fe" fill-rule="evenodd"/><path d="M 327.851 147.998 C 313.651 153.768, 297.166 165.282, 283.343 179.084 L 274.185 188.228 283.843 196.386 C 289.154 200.873, 317.235 224.466, 346.244 248.814 L 398.988 293.083 402.145 289.487 C 410.569 279.893, 418.049 268.281, 422.847 257.348 C 425.794 250.635, 429.563 238.140, 430.194 233 C 430.461 230.817, 426.131 226.836, 396 201.569 C 336.282 151.489, 332.004 147.802, 332.568 146.891 C 333.257 145.775, 333.410 145.739, 327.851 147.998 M 431.252 217.500 C 431.263 219.700, 431.468 220.482, 431.707 219.238 C 431.946 217.994, 431.937 216.194, 431.687 215.238 C 431.437 214.282, 431.241 215.300, 431.252 217.500" stroke="none" fill="#42c2fc" fill-rule="evenodd"/><path d="M 215.333 103.810 C 210.841 105.407, 205.159 107.889, 202.707 109.326 C 183.514 120.574, 165.313 147.230, 158.534 174.020 C 157.633 177.584, 156.698 181.175, 156.457 182 C 156.090 183.257, 157.275 183.459, 163.759 183.246 C 168.017 183.107, 194.327 184.010, 222.226 185.253 L 272.951 187.513 281.457 179.345 C 288.998 172.103, 303.024 160.765, 307.630 158.187 C 309.118 157.354, 308.944 156.638, 305.970 151.378 C 296.364 134.386, 282.148 118.830, 269.396 111.355 C 256.950 104.060, 249.213 101.767, 235.500 101.309 C 224.260 100.933, 222.983 101.092, 215.333 103.810 M 152.232 216 C 152.232 217.925, 152.438 218.713, 152.689 217.750 C 152.941 216.787, 152.941 215.213, 152.689 214.250 C 152.438 213.287, 152.232 214.075, 152.232 216" stroke="none" fill="#f69d0a" fill-rule="evenodd"/><path d="M 278.462 183.250 L 273.500 188.500 278.750 183.538 C 281.637 180.808, 284 178.446, 284 178.288 C 284 177.541, 283.074 178.372, 278.462 183.250 M 269.747 193.250 C 262.666 202.137, 249 223.428, 249 225.574 C 249 226.013, 250.012 227.525, 251.250 228.936 L 253.500 231.500 250.855 229.175 C 249.011 227.553, 247.994 227.201, 247.493 228.012 C 247.098 228.651, 247.163 229.525, 247.637 229.953 C 248.112 230.381, 273.925 252.015, 305 278.030 C 336.075 304.044, 362.182 325.904, 363.016 326.607 C 364.309 327.698, 367.083 325.343, 381.883 310.588 L 399.235 293.289 337.143 241.145 C 302.993 212.465, 274.620 189, 274.093 189 C 273.565 189, 271.610 190.912, 269.747 193.250 M 246 231.769 C 246 232.760, 360.160 329.135, 362.211 329.875 C 362.782 330.081, 363.081 329.801, 362.875 329.253 C 362.594 328.505, 257.447 239.809, 247.735 232.128 C 246.781 231.373, 246 231.211, 246 231.769 M 244.550 235.865 C 245.072 236.341, 270.700 257.854, 301.500 283.672 C 351.481 325.567, 364.233 336.015, 359 330.782 C 355.619 327.400, 244.991 235, 244.324 235 C 243.926 235, 244.028 235.389, 244.550 235.865 M 260 236.302 C 260 236.577, 262.700 239.141, 266 242 C 269.300 244.859, 272 246.973, 272 246.698 C 272 246.423, 269.300 243.859, 266 241 C 262.700 238.141, 260 236.027, 260 236.302 M 285 257.364 C 285 257.639, 289.050 261.300, 294 265.500 C 298.950 269.700, 303 272.911, 303 272.636 C 303 272.361, 298.950 268.700, 294 264.500 C 289.050 260.300, 285 257.089, 285 257.364 M 316 283.302 C 316 283.577, 318.700 286.141, 322 289 C 325.300 291.859, 328 293.973, 328 293.698 C 328 293.423, 325.300 290.859, 322 288 C 318.700 285.141, 316 283.027, 316 283.302 M 341 304.302 C 341 304.577, 343.700 307.141, 347 310 C 350.300 312.859, 353 314.973, 353 314.698 C 353 314.423, 350.300 311.859, 347 309 C 343.700 306.141, 341 304.027, 341 304.302" stroke="none" fill="#6ea7f8" fill-rule="evenodd"/><path d="M 214.631 313.577 C 210.604 330.677, 209.012 343.135, 209.006 357.614 C 208.995 382.025, 212.578 391.547, 225.710 402 C 229.829 405.279, 243.418 405.795, 254.152 403.081 C 264.218 400.535, 282.066 392.075, 295.730 383.371 L 305.959 376.856 286.730 360.710 C 276.153 351.830, 256.203 335.049, 242.396 323.420 L 217.293 302.275 214.631 313.577 M 213.747 395.057 C 215.396 396.941, 215.692 397.908, 214.869 398.731 C 214.046 399.554, 215.148 400.264, 219.057 401.424 C 226.479 403.628, 227.208 403.379, 222 400.417 C 219.525 399.009, 216.152 396.652, 214.504 395.179 C 211.564 392.551, 211.550 392.549, 213.747 395.057" stroke="none" fill="#9b8bf4" fill-rule="evenodd"/><path d="M 156 253.189 C 156 259.427, 164.012 294.929, 169.272 312 L 171.583 319.500 177.541 320.123 C 180.819 320.465, 190.064 321.011, 198.088 321.336 L 212.675 321.927 214.436 313.714 C 216.868 302.367, 222.207 285.004, 228.139 269.150 C 230.886 261.808, 232.991 255.685, 232.817 255.544 C 232.643 255.402, 219.900 254.765, 204.500 254.127 C 189.100 253.489, 171.887 252.688, 166.250 252.347 C 157.643 251.826, 156 251.961, 156 253.189" stroke="none" fill="#fad31a" fill-rule="evenodd"/><path d="M 279.469 181.250 L 273.500 187.500 279.750 181.531 C 285.556 175.987, 286.458 175, 285.719 175 C 285.564 175, 282.751 177.813, 279.469 181.250 M 156.632 183.787 C 156.364 184.220, 155.438 189.340, 154.573 195.165 C 152.721 207.638, 152.553 224.970, 154.133 240.557 L 155.266 251.732 165.883 252.343 C 171.722 252.679, 189.100 253.485, 204.500 254.134 C 222.377 254.887, 232.766 255.708, 233.235 256.407 C 233.734 257.150, 233.974 257.088, 233.985 256.213 C 234.013 253.805, 246.818 228.068, 253.861 216.262 C 257.720 209.793, 263.595 200.912, 266.915 196.526 C 270.235 192.140, 272.625 188.274, 272.226 187.935 C 271.573 187.379, 171.442 182.897, 161.309 182.970 C 159.004 182.986, 156.899 183.354, 156.632 183.787 M 208.310 358.500 C 208.315 361.800, 208.502 363.029, 208.725 361.232 C 208.947 359.435, 208.943 356.735, 208.715 355.232 C 208.486 353.729, 208.304 355.200, 208.310 358.500" stroke="none" fill="#f6af10" fill-rule="evenodd"/><path d="M 356.250 140.689 C 357.212 140.941, 358.788 140.941, 359.750 140.689 C 360.712 140.438, 359.925 140.232, 358 140.232 C 356.075 140.232, 355.288 140.438, 356.250 140.689 M 247.036 231.360 C 248.677 232.885, 359.437 325.651, 362.420 328 C 363.561 328.898, 364.160 329.024, 363.913 328.314 C 363.347 326.688, 248.045 230, 246.672 230 C 246.050 230, 246.208 230.591, 247.036 231.360 M 244.754 233.267 C 244.501 233.964, 268.146 254.498, 299.142 280.500 C 360.438 331.919, 361.093 332.476, 359 331.391 C 358.175 330.963, 332.378 309.523, 301.674 283.746 C 270.969 257.969, 245.284 236.662, 244.594 236.398 C 243.440 235.955, 239.124 243.573, 240.094 244.343 C 241.932 245.803, 331.190 320.668, 340.506 328.564 L 352.513 338.740 357.314 334.515 L 362.115 330.291 318.807 293.933 C 294.988 273.937, 268.683 251.829, 260.351 244.805 C 251.385 237.246, 245.019 232.537, 244.754 233.267 M 260 236.302 C 260 236.577, 262.700 239.141, 266 242 C 269.300 244.859, 272 246.973, 272 246.698 C 272 246.423, 269.300 243.859, 266 241 C 262.700 238.141, 260 236.027, 260 236.302 M 285 257.364 C 285 257.639, 289.050 261.300, 294 265.500 C 298.950 269.700, 303 272.911, 303 272.636 C 303 272.361, 298.950 268.700, 294 264.500 C 289.050 260.300, 285 257.089, 285 257.364 M 316 283.302 C 316 283.577, 318.700 286.141, 322 289 C 325.300 291.859, 328 293.973, 328 293.698 C 328 293.423, 325.300 290.859, 322 288 C 318.700 285.141, 316 283.027, 316 283.302 M 384.486 308.250 L 371.500 321.500 384.750 308.514 C 397.058 296.452, 398.453 295, 397.736 295 C 397.590 295, 391.628 300.962, 384.486 308.250 M 341 304.302 C 341 304.577, 343.700 307.141, 347 310 C 350.300 312.859, 353 314.973, 353 314.698 C 353 314.423, 350.300 311.859, 347 309 C 343.700 306.141, 341 304.027, 341 304.302" stroke="none" fill="#6da6f7" fill-rule="evenodd"/></svg>