<svg xmlns="http://www.w3.org/2000/svg" width="500" height="500" viewBox="0 0 500 500" version="1.1"><path d="M 260.648 131.184 C 259.572 135.201, 259.981 147.246, 261.422 154 C 265.639 173.757, 274.274 190.361, 301.986 232 C 316.116 253.231, 320.885 262.482, 321.682 270.212 C 322.395 277.116, 320.398 281.246, 315.019 283.990 C 308.955 287.084, 304.308 286.515, 286.544 280.500 C 266.870 273.839, 261.476 273.370, 256.923 277.923 C 254.325 280.521, 254 281.531, 254 287.006 C 254 297.342, 260.038 317.469, 270.112 340.714 C 277.482 357.720, 286.024 373.101, 285.993 369.309 C 285.990 368.864, 285.068 360.850, 283.944 351.500 C 280.977 326.803, 282.243 318.243, 289.781 312.029 C 294.929 307.785, 301.281 306.536, 310.227 308.008 C 323.527 310.196, 332.895 314.841, 362.102 333.732 C 400.239 358.398, 416.908 365.012, 440.878 364.989 C 452.664 364.978, 460 364.255, 460 363.106 C 460 362.758, 457.637 361.926, 454.750 361.256 C 445.332 359.074, 416.468 343.291, 405.590 334.376 C 392.409 323.574, 378.491 306.877, 372.585 294.782 C 364.202 277.612, 363.680 260.333, 371.298 252.166 C 375.833 247.304, 380.824 245.563, 390 245.640 C 404.682 245.763, 417.258 252.001, 429.512 265.236 C 433.104 269.116, 436.331 272.003, 436.682 271.652 C 437.847 270.487, 435.081 263.436, 430.905 256.923 C 425.600 248.651, 411.097 234.563, 402.899 229.719 C 393.963 224.438, 383.070 221.376, 364.854 219.021 C 347.614 216.793, 338.866 214.463, 328.885 209.440 C 312.761 201.325, 290.750 181.432, 279.828 165.102 C 272.055 153.481, 265.877 141.771, 263.946 135 C 262.318 129.292, 261.430 128.264, 260.648 131.184 M 339.218 145.579 C 332.956 148.699, 328.553 154.008, 325.821 161.731 C 319.450 179.742, 332.106 200, 349.728 200 C 356.345 200, 360.571 198.286, 365.962 193.415 C 375.763 184.561, 378.281 169.312, 371.981 156.964 C 369.742 152.574, 362.974 146.305, 358.422 144.403 C 353.007 142.140, 345.153 142.621, 339.218 145.579" stroke="none" fill="#f92b04" fill-rule="evenodd"/><path d="M 237.609 130.083 C 237.357 130.862, 236.605 133.300, 235.937 135.500 C 233.996 141.894, 227.682 153.850, 220.858 164.053 C 205.803 186.565, 179.531 207.918, 158.798 214.494 C 154.562 215.838, 143.987 217.852, 135.298 218.971 C 113.421 221.787, 106.641 223.701, 97 229.781 C 80.549 240.158, 63.048 261.365, 63.010 270.969 C 63.001 273.106, 64.110 272.301, 71.272 264.969 C 84.235 251.698, 95.998 245.848, 110 245.706 C 121.432 245.591, 128.306 249.258, 132.110 257.500 C 134.445 262.559, 134.604 274.259, 132.450 282.540 C 127.546 301.392, 106.540 326.919, 83.762 341.705 C 70.117 350.563, 52.404 359.542, 45.547 361.077 C 42.496 361.760, 40 362.669, 40 363.098 C 40 364.566, 49.003 365.227, 62.750 364.767 C 75.268 364.349, 77.478 363.979, 87.408 360.644 C 101.620 355.870, 114.013 349.308, 138.500 333.589 C 162.505 318.180, 172.196 312.871, 181.500 310.032 C 201.604 303.898, 214.544 309.454, 217.274 325.392 C 218.206 330.834, 218.086 335.111, 216.618 348.776 C 215.630 357.974, 214.588 366.512, 214.302 367.750 C 213.074 373.076, 216.143 369.170, 221.767 358.250 C 237.110 328.460, 248.152 295.351, 246.488 284.124 C 244.874 273.231, 237.442 272.257, 215.009 279.997 C 207.043 282.745, 198.433 285.272, 195.874 285.611 C 189.910 286.402, 184.764 284.696, 181.533 280.857 C 179.360 278.275, 179 276.869, 179 270.977 C 179 262.064, 181.571 257.065, 201.767 226.713 C 224.587 192.417, 233.743 175.122, 238.110 158.063 C 240.305 149.489, 240.994 131.594, 239.198 129.798 C 238.355 128.955, 237.949 129.027, 237.609 130.083 M 141 144.590 C 136.431 146.564, 130.364 152.474, 127.750 157.500 C 124.789 163.191, 124.193 175.054, 126.516 182.048 C 128.615 188.369, 134.864 195.555, 140.500 198.129 C 146.089 200.682, 154.933 200.575, 160.290 197.890 C 166.072 194.992, 169.711 191.398, 172.834 185.500 C 175.131 181.162, 175.482 179.308, 175.482 171.500 C 175.482 163.676, 175.132 161.835, 172.805 157.410 C 169.836 151.764, 164.376 146.473, 159.355 144.375 C 155.041 142.572, 145.410 142.685, 141 144.590" stroke="none" fill="#1b73d2" fill-rule="evenodd"/></svg>